<?xml version="1.0" encoding="utf-8"?>
<!-- Generator: Adobe Illustrator 16.0.0, SVG Export Plug-In . SVG Version: 6.00 Build 0)  -->
<!DOCTYPE svg PUBLIC "-//W3C//DTD SVG 1.1//EN" "http://www.w3.org/Graphics/SVG/1.1/DTD/svg11.dtd">
<svg version="1.1" id="レイヤー_1" xmlns="http://www.w3.org/2000/svg" xmlns:xlink="http://www.w3.org/1999/xlink" x="0px"
	 y="0px" width="595.28px" height="841.89px" viewBox="0 0 595.28 841.89" enable-background="new 0 0 595.28 841.89"
	 xml:space="preserve">
<path fill-rule="evenodd" clip-rule="evenodd" fill="#01608C" d="M71.82,73.875c-0.736,0.07-0.559-0.771-1.084-0.904
	c-1.369,0.34-2.334-0.808-3.072,0c-1.389-0.826-2.596-1.281-4.514-1.084c-4.299-1.309-7.947-2.628-12.463-4.155
	c-2.092-0.703-3.848-1.25-6.322-1.986c-0.641-0.189-1.195-0.868-1.806-1.084c-1.587-0.562-3.441-0.713-5.059-1.266
	c-1.059-0.358-2.07-0.914-3.07-1.263c-1.156-0.404-2.281-0.53-3.432-0.904c-1.195-0.385-2.55-1.478-3.975-1.984
	c-2.102-0.749-4.44-1.189-6.682-1.987c-0.479-0.17-0.75-0.701-1.266-0.904c-0.389-0.151-0.856,0.115-1.263,0
	c-0.7-0.194-1.488-0.791-2.35-1.082C9.938,53.398,5.11,51.729,1.739,47.864c-2.326-2.667-1.837-6.766-1.264-11.378
	c0.88-7.101,1.64-15.606,3.431-21.496c5.835-3.315,10.815-7.485,15.353-12.098c0.301,0,0.602,0,0.902,0
	c1.301-2.14,4.791-2.835,8.67-2.891c3.461-0.052,7.188,1.335,10.476,1.807c2.043,0.292,3.128,0.426,5.421,0.901
	c4.25,0.883,9.135,3.236,12.461,3.612c0.904,0.102,2.646,0.135,3.432,0c3.068-0.529,6.51-4.342,10.295-2.888
	c0.938,0.358,2.143,2.329,3.432,3.61c3.732,3.712,8.326,6.48,8.85,13.366c-0.189,0.792,0.613,0.592,0.543,1.264
	c0.162,3.27,0.496,5.482,0.902,8.49c0.17,1.246,0.943,2.644,1.264,3.974c0.186,0.763,0,1.561,0.182,2.167
	c0.846,2.84,3.197,5.029,4.336,7.766c1.889,4.543,3.561,8.766,4.877,13.909c-0.209,3.64,0.389,8.115-2.168,10.113
	c-0.629,0.145-0.695-0.27-1.266-0.181c-0.955,0.85-2.178,1.03-3.43,1.627c-1.135,0.538-1.92,1.554-3.072,2.168
	c-0.43,0.229-1.316,0.288-1.807,0.539c-1.795,0.928-3.426,2.859-4.875,2.892c-0.604,0.012-1.873-0.52-2.891-0.724
	C74.322,74.122,72.884,73.38,71.82,73.875z"/>
</svg>
