<?xml version="1.0" encoding="utf-8"?>
<!-- Generator: Adobe Illustrator 16.0.0, SVG Export Plug-In . SVG Version: 6.00 Build 0)  -->
<!DOCTYPE svg PUBLIC "-//W3C//DTD SVG 1.1//EN" "http://www.w3.org/Graphics/SVG/1.1/DTD/svg11.dtd">
<svg version="1.1" id="レイヤー_1" xmlns="http://www.w3.org/2000/svg" xmlns:xlink="http://www.w3.org/1999/xlink" x="0px"
	 y="0px" width="595.28px" height="841.89px" viewBox="0 0 595.28 841.89" enable-background="new 0 0 595.28 841.89"
	 xml:space="preserve">
<path fill-rule="evenodd" clip-rule="evenodd" fill="#01608C" d="M121.016,13.229c2.551,6.069,3.133,15.037,4.877,21.314
	c1.23,2.171,2.387,4.543,3.613,7.224c0.465,1.022,1.473,1.844,1.986,2.891c0.273,0.556,0.205,1.407,0.541,2.166
	c0.604,1.362,2.15,3.922,2.709,5.781c1.34,4.45,2.582,11.062-0.723,14.447c-0.83-0.005-1.762,0.217-2.166,1.085
	c-4.529,1.012-7.363,3.715-10.477,6.141c-6.037,1.43-10.48,5.412-16.254,6.504c-0.227,0.436-0.484,0.841-0.906,1.083
	c-5.377,2.093-15.379,0.184-23.299,0.542c-2.881,0.13-5.291-0.18-8.057,0.061c-0.705,0.062-1.834,0.494-3.141,0.678
	c-1.535,0.215-2.879,0.356-4.336,0.886c-2.1,0.022-3.779,0.143-5.873,0.562c-0.699,0.139-1.775,0.641-2.486,0.744
	c-1.615,0.241-3.268,0.207-5.006,0.143c-3.416-0.134-6.863-0.063-10.293,0c-1.58,0.026-3.229,0.202-4.854,0.176
	c-1.115-0.021-1.721-0.447-2.848-0.5c-1.826-0.084-3.812,0.021-5.67-0.133c-8.205-0.69-16.334-2.371-22.572-5.325
	c-0.338-0.509-0.6-1.086-1.266-1.267c-0.197-1.985-2.178-3.716-3.252-5.777c-0.449-0.861-1.221-2.452-1.264-3.251
	c-0.059-1.098,1.408-4.058,2.168-5.961c0.91-2.28,1.547-4.402,2.168-5.96c1.699-4.27,3.014-8.055,4.514-11.561
	c0.613-1.427,1.266-2.567,1.986-4.334c1.426-3.486,3.58-7.366,5.238-11.017c1.129-2.485,1.998-5.359,3.072-6.865
	c1.453-2.034,4.178-3.312,6.5-4.695c4.328-2.577,7.941-6.151,10.117-9.932c3.139-2.945,5.686-6.477,9.211-9.033
	c1.072-0.143,3.211,0.079,4.154,0.362c0.543,0.162,0.883,0.665,1.445,0.902c1.771,0.745,4.262,1.326,6.502,2.35
	c2.891,1.315,4.529,2.293,7.766,2.708c1.088,0.138,2.926,0.613,4.154,0.543c3.357-0.198,7.336-1.904,11.02-2.71
	c0.459-0.102,0.961,0.06,1.443,0c3.006-0.374,5.469-1.981,8.488-1.626c0.656,0.077,1.537,0.838,2.348,0.903
	c1.068,0.082,1.537-0.256,3.072,0.36c1.869,0.75,3.574,1.372,6.141,1.626c1.113,0.109,2.994,0.869,4.514,1.263
	c3.01,0.783,6.715,1.437,9.756,2.71C118.436,10.553,119.193,11.287,121.016,13.229z"/>
</svg>
