<?xml version="1.0" encoding="utf-8"?>
<!-- Generator: Adobe Illustrator 16.0.0, SVG Export Plug-In . SVG Version: 6.00 Build 0)  -->
<!DOCTYPE svg PUBLIC "-//W3C//DTD SVG 1.1//EN" "http://www.w3.org/Graphics/SVG/1.1/DTD/svg11.dtd">
<svg version="1.1" id="レイヤー_1" xmlns="http://www.w3.org/2000/svg" xmlns:xlink="http://www.w3.org/1999/xlink" x="0px"
	 y="0px" width="595.28px" height="841.89px" viewBox="0 0 595.28 841.89" enable-background="new 0 0 595.28 841.89"
	 xml:space="preserve">
<path fill-rule="evenodd" clip-rule="evenodd" fill="#01608C" d="M0.072,12.284c1.566-0.711,2.226-2.316,3.793-3.072
	C4.181,9.059,4.77,9.236,5.129,9.033C6.117,8.468,7.085,7.685,8.38,7.044c2.7-1.334,4.727-2.416,7.768-3.793
	c1.319-0.598,3.441-1.918,4.335-1.986c0.818-0.062,1.363,0.56,2.167,0.724c0.365,0.073,0.704-0.212,1.081-0.181
	c0.994,0.075,2.462,0.583,3.794,0.901c1.089,0.261,2.32,0.595,3.614,0.905c1.03,0.245,2.119,0.967,3.069,1.083
	c1.35,0.161,2.265,0.342,3.791,0.722c0.862,0.214,1.876,0.137,2.711,0.362c1.105,0.295,3.495,1.414,5.419,1.263
	c1.312-0.101,3.607-1.418,5.238-1.986C55.37,3.662,58.755,2.305,61.661,0c3.377,0.324,6.353,0.472,9.031,2.168
	c1.334,0.844,2.393,2.195,3.793,2.89c0.572,0.283,1.266,0.224,1.807,0.541c0.416,0.244,0.68,0.861,1.084,1.083
	c0.65,0.357,1.842,0.543,2.709,0.904c2.014,0.844,3.982,0.996,6.684,1.626c3.91,0.911,7.941,2.45,11.379,3.072
	c1.951,0.348,2.094,0.65,3.793,1.442c1.424,0.667,2.307,0.545,3.07,1.625c0.559,2.72,1.863,5.454,2.35,8.491
	c0.8,5.039-0.969,9.757-2.713,13.727c-0.361,0.65,0.02,0.873,0.184,1.446c-2.166,1.577-2.793,4.423-3.975,6.86
	c-0.963,1.989-2.33,3.734-3.252,5.602c-4.855,3.337-10.832,6.011-16.254,9.209c-2.34,1.381-4.197,3.174-7.045,3.072
	c-0.725,0.722-1.832,1.056-2.348,1.984c-2.465,1.602-5.387,2.907-8.128,4.517c-2.068,1.218-4.043,2.757-6.141,3.612
	c-1.057,0.432-2.652,1.021-3.792,1.083c-0.911,0.052-1.988-0.647-3.612-1.083c-0.998-0.269-2.122-0.088-2.891-0.36
	c-0.369-0.132-0.711-0.619-1.083-0.722c-0.4-0.11-0.857,0.248-1.264,0.181c-0.471-0.078-1.246-0.834-1.986-0.904
	c-0.393-0.036-1.018,0.258-1.266,0.18c-0.308-0.094-0.388-0.665-0.723-0.722c-0.504-0.084-0.944,0.327-1.444,0.182
	c-0.989-0.286-1.863-1.178-2.891-1.446c-1.234-0.321-2.535-0.278-3.793-0.722c-1.198-0.424-2.413-1.011-3.612-1.445
	c-1.168-0.425-2.498-0.643-3.433-1.085c-1.056-0.498-1.904-1.451-3.068-1.985c-1.17-0.535-2.449-0.884-3.432-1.447
	c-1.279-0.728-2.408-1.987-4.334-2.167c-2.258-2.494-2.888-7.456-4.517-10.834c-0.555-1.153-1.543-2.023-2.168-3.072
	c-3.1-5.218-5.744-10.489-8.127-16.436C-0.248,25.176,0.167,18.114,0.072,12.284z"/>
</svg>
