<?xml version="1.0" encoding="utf-8"?>
<!-- Generator: Adobe Illustrator 16.0.0, SVG Export Plug-In . SVG Version: 6.00 Build 0)  -->
<!DOCTYPE svg PUBLIC "-//W3C//DTD SVG 1.1//EN" "http://www.w3.org/Graphics/SVG/1.1/DTD/svg11.dtd">
<svg version="1.1" id="レイヤー_1" xmlns="http://www.w3.org/2000/svg" xmlns:xlink="http://www.w3.org/1999/xlink" x="0px"
	 y="0px" width="595.28px" height="841.89px" viewBox="0 0 595.28 841.89" enable-background="new 0 0 595.28 841.89"
	 xml:space="preserve">
<path fill-rule="evenodd" clip-rule="evenodd" fill="#01608C" d="M122.955,62.133c-1.869,3.49-4.089,6.628-5.599,10.478
	c-3.588,0.264-6.154,1.559-10.115,0.9c-1.609,1.301-3.484,0.662-6.502,0.726c-5.992,0.123-12.242,0.447-16.797,0.902
	c-2.17-1.681-5.955-0.287-9.213-0.362c-6.472-0.146-13.41,0.584-20.587,0.182c-2.912,1.097-7.76,0.021-12.285-0.363
	c-1.018-0.084-2.119,0.08-3.068,0c-4.771-0.391-9.982-1.506-14.81-1.624c-6.73-0.163-14.623-0.843-18.242-5.058
	c-5.709-15.972-6.041-37.353-5.6-57.619c1.518-1.112,2.945-2.309,4.516-3.431C6.103,5.832,7.617,4.52,9.167,3.611
	c3.004-1.758,6.654-2.582,10.295-3.068C19.708,0.509,19.945,0.075,20.365,0c4.449,0.257,8.769,1.822,12.824,3.611
	c1.916,0.845,4.729,2.137,7.406,2.348c1.488,0.119,3.162-0.415,4.875-0.359c2.42,0.077,4.994,0.612,7.406,0.542
	c0.662-0.018,1.455-0.372,2.166-0.362c1.967,0.028,4.531,0.972,6.684,1.446c2.307,0.507,4.566,1.358,6.863,0.9
	c0.477,0.251,0.686,0.76,1.266,0.904c4.96,0.177,8.63,2.161,13.183,2.348c0.676,0.031,1.436-0.222,2.168-0.181
	c2.102,0.124,4.439,1.352,6.684,2.17c5.271,1.921,10.34,4.135,14.629,7.043c1.756,1.19,2.537,1.71,3.975,3.251
	c1.43,1.536,1.822,2.432,2.709,4.878c1.629,4.493,3.477,10.218,5.059,15.532c0.314,1.068,0.1,1.786,0.359,2.891
	c0.5,2.108,1.633,4.183,2.168,6.32C121.561,56.371,121.627,59.604,122.955,62.133z"/>
</svg>
