<?xml version="1.0" encoding="utf-8"?>
<!-- Generator: Adobe Illustrator 16.0.0, SVG Export Plug-In . SVG Version: 6.00 Build 0)  -->
<!DOCTYPE svg PUBLIC "-//W3C//DTD SVG 1.1//EN" "http://www.w3.org/Graphics/SVG/1.1/DTD/svg11.dtd">
<svg version="1.1" id="レイヤー_1" xmlns="http://www.w3.org/2000/svg" xmlns:xlink="http://www.w3.org/1999/xlink" x="0px"
	 y="0px" width="595.28px" height="841.89px" viewBox="0 0 595.28 841.89" enable-background="new 0 0 595.28 841.89"
	 xml:space="preserve">
<path fill-rule="evenodd" clip-rule="evenodd" fill="#01608C" d="M75.556,5.626c3.426,5.183,5.055,12.168,8.311,17.521
	c-0.344,0.845-0.279,1.455-0.182,2.349c1.611,14.766,8.904,26.285,13.365,38.649c-2.414,5.715-3.369,12.887-8.488,15.896
	c-3.971-0.556-7.475,0.01-11.018-0.181c-3.834-0.205-7.578-2.141-11.199-3.251c-1.822-0.561-3.764-1.036-5.598-1.627
	c-1.783-0.57-3.641-1.45-5.238-1.806c-2.582-0.572-6.234-0.485-9.031-0.904c-3.209-0.479-7.111,1.084-11.019,0.543
	c-2.796-1.299-4.929-3.259-8.126-4.152c-3.849-2.784-7.477-4.896-11.923-7.407c-1.485-0.841-3.582-2.186-5.778-3.613
	c-1.992-1.292-4.481-2.626-5.24-4.336c-0.648-1.46-0.209-3.875-0.54-5.598c-0.539-2.79-1.363-6.281-2.167-9.571
	c-0.764-3.119-1.967-7.044-1.626-9.935c0.173-1.466,1.292-3.266,1.986-4.876c2.067-4.8,3.828-9.697,6.142-13.909
	c1.962-0.523,3.54-2.89,5.78-1.985c3.897-1.607,8.454-2.804,12.821-4.517c2.504-0.982,5.625-0.623,9.031-1.084
	c1.462-0.197,2.862-0.57,4.335-0.723c4.021-0.407,6.955-0.686,11.379-1.083c2.652-0.237,4.967,1.081,7.766,1.987
	c0.426,0.137,1.004,0.008,1.447,0.181c0.408,0.158,0.633,0.742,1.084,0.902c1.535,0.547,3.23,0.837,4.877,1.444
	C68.531,5.218,72.064,5.971,75.556,5.626z M87.478,79.319c0.18,0,0.361,0,0.543,0c0.049-0.412-0.045-0.677-0.363-0.722
	C87.603,78.842,87.402,78.942,87.478,79.319z"/>
</svg>
