<?xml version="1.0" encoding="utf-8"?>
<!-- Generator: Adobe Illustrator 16.0.0, SVG Export Plug-In . SVG Version: 6.00 Build 0)  -->
<!DOCTYPE svg PUBLIC "-//W3C//DTD SVG 1.1//EN" "http://www.w3.org/Graphics/SVG/1.1/DTD/svg11.dtd">
<svg version="1.1" id="レイヤー_1" xmlns="http://www.w3.org/2000/svg" xmlns:xlink="http://www.w3.org/1999/xlink" x="0px"
	 y="0px" width="595.28px" height="841.89px" viewBox="0 0 595.28 841.89" enable-background="new 0 0 595.28 841.89"
	 xml:space="preserve">
<path fill-rule="evenodd" clip-rule="evenodd" fill="#01608C" d="M13.069,2.015c4.301-0.603,8.774-1.651,13.004-1.988
	c2.963-0.236,4.807,1.175,7.226,1.988c1.858,0.622,3.577,1.221,5.238,1.805c3.958,2.86,8.418,4.812,13.185,7.226
	c2.611,1.323,5.146,3.172,9.391,3.07c1.711-0.042,3.725-0.15,5.961-0.182c3.869-0.051,8.473-1.912,11.922-0.36
	c1.152,0.52,2.096,2.277,3.25,3.431c3.48,3.481,6.17,6.886,9.393,10.475c0.684,2.715,0.605,5.225,0.361,8.491
	c-0.607,8.154,2.709,16.668,1.445,24.381c-1.02,0.979-2.355,1.246-3.613,1.809c-2.639,1.179-4.734,2.026-8.49,2.708
	c-2.961,0.54-6.268,1.747-9.932,1.985c-4.391,0.293-10.143-1.145-14.09-0.357c-2.605,0.519-7.193,0.54-11.198,0.54
	c-4.557,0-8.921,0.117-12.644-0.361c-2.313-0.296-4.706,0.159-7.043,0c-0.769-0.051-1.576-0.466-2.349-0.541
	c-1.053-0.103-2.191,0.26-3.251,0.181c-0.676-0.051-1.327-0.449-1.986-0.544c-4.259-0.599-8.744-0.05-12.825-1.084
	c-4.314-2.99-6.422-8.492-5.962-14.267c0.06-0.723,0.489-1.56,0.545-2.349c0.205-2.974,0.811-6.51,1.624-9.572
	c0.636-2.392,1.783-4.659,2.529-7.043c0.242-0.772,0.127-1.734,0.362-2.528c0.887-3.005,2.396-7.706,2.708-11.562
	c0.144-1.773-0.189-3.74,0.181-5.417C8.865,8.075,12.373,5.487,13.069,2.015z"/>
</svg>
