<?xml version="1.0" encoding="utf-8"?>
<!-- Generator: Adobe Illustrator 16.0.0, SVG Export Plug-In . SVG Version: 6.00 Build 0)  -->
<!DOCTYPE svg PUBLIC "-//W3C//DTD SVG 1.1//EN" "http://www.w3.org/Graphics/SVG/1.1/DTD/svg11.dtd">
<svg version="1.1" id="レイヤー_1" xmlns="http://www.w3.org/2000/svg" xmlns:xlink="http://www.w3.org/1999/xlink" x="0px"
	 y="0px" width="595.28px" height="841.89px" viewBox="0 0 595.28 841.89" enable-background="new 0 0 595.28 841.89"
	 xml:space="preserve">
<path fill-rule="evenodd" clip-rule="evenodd" fill="#01608C" d="M132.005,77.675c-24.471,21.749-60.897,12.616-91.218,12.05
	C17.041,89.282,9.056,68.784,4.935,49.752c-1.604-7.408-8.581-16.048-2.47-22.367c3.635-3.759,7.156-8.85,10.877-12.203
	c3.971-3.583,11.574-3.153,16.376-4.649c9.888-3.082,19.191-7.508,29.204-9.861c14.271-3.354,28.727,6.692,42.017,10.896
	c9.982,3.176,19.084,4.927,26.619,13.117C135.34,33.146,132.987,66.718,132.005,77.675C128.66,80.649,132.425,72.989,132.005,77.675
	z"/>
</svg>
