<?xml version="1.0" encoding="utf-8"?>
<!-- Generator: Adobe Illustrator 16.0.0, SVG Export Plug-In . SVG Version: 6.00 Build 0)  -->
<!DOCTYPE svg PUBLIC "-//W3C//DTD SVG 1.1//EN" "http://www.w3.org/Graphics/SVG/1.1/DTD/svg11.dtd">
<svg version="1.1" id="レイヤー_1" xmlns="http://www.w3.org/2000/svg" xmlns:xlink="http://www.w3.org/1999/xlink" x="0px"
	 y="0px" width="595.28px" height="841.89px" viewBox="0 0 595.28 841.89" enable-background="new 0 0 595.28 841.89"
	 xml:space="preserve">
<path fill-rule="evenodd" clip-rule="evenodd" fill="#01608C" d="M80.561,67.561c-6.658,0.482-17.148,2.182-24.385,2.349
	c-0.543,0.014-1.133,0.032-1.625,0c-0.824-0.051-2.154-0.195-3.975-0.181c-2.615,0.023-5.35,0.654-7.764,0.543
	c-0.633-0.029-1.367-0.468-1.988-0.543c-5.902-0.708-12.512,0.933-18.785-0.54c-2.311-4.372-5.186-8.18-9.029-11.02
	c-0.859-2.331-2.639-3.741-3.793-5.777c-0.896-4.876-1.65-9.6-2.891-14.81c-0.195-0.828-0.816-1.435-1.084-2.35
	c-0.234-0.808-0.139-1.788-0.359-2.711c-0.668-2.746-2.449-7.229-3.072-10.295c-0.096-0.467,0.121-0.997,0-1.443
	c-0.498-1.858-1.914-4.351-1.805-5.78c0.09-1.218,1.551-2.063,1.625-3.251c5.33-2.195,10.195-4.854,14.27-8.309
	c2.787-1.085,4.586-3.237,7.766-3.435c2.477-0.151,5.266,1.643,7.766,2.53c1.725,0.611,3.359,0.572,4.516,1.624
	c4.688-0.302,10.207,0.145,15.172-0.179c0.592,0.067,0.797,0.527,1.264,0.722c6.508-0.103,12.061-0.476,18.785-0.543
	c0.674,0.11,0.885,0.681,1.627,0.726c4.914-0.604,5.539,4.383,9.391,5.419c1.404,2.81,4.309,4.118,5.961,6.681
	c-0.752,4.64,0.916,9.989,1.264,15.354c0.521,8.056,0.475,17.508,0,25.285C86.793,61.272,83.074,63.813,80.561,67.561z"/>
</svg>
