<?xml version="1.0" encoding="utf-8"?>
<!-- Generator: Adobe Illustrator 16.0.0, SVG Export Plug-In . SVG Version: 6.00 Build 0)  -->
<!DOCTYPE svg PUBLIC "-//W3C//DTD SVG 1.1//EN" "http://www.w3.org/Graphics/SVG/1.1/DTD/svg11.dtd">
<svg version="1.1" id="レイヤー_1" xmlns="http://www.w3.org/2000/svg" xmlns:xlink="http://www.w3.org/1999/xlink" x="0px"
	 y="0px" width="595.28px" height="841.89px" viewBox="0 0 595.28 841.89" enable-background="new 0 0 595.28 841.89"
	 xml:space="preserve">
<path fill-rule="evenodd" clip-rule="evenodd" fill="#01608C" d="M106.384,72.221c-0.627,0.145-0.693-0.268-1.266-0.18
	c-1.719,0.981-3.697,1.514-5.418,2.526c-0.596,0.354-1.041,0.979-1.625,1.265c-0.291,0.143-0.82,0.03-1.082,0.182
	c-1.746,1.01-3.18,3.269-5.779,2.889c-0.344-0.049-0.613-0.45-1.084-0.542c-0.309-0.056-0.631,0.271-0.904,0.184
	c-0.469-0.155-0.834-0.623-1.264-0.725c-0.346-0.08-0.832,0.242-1.084,0.181c-0.436-0.107-0.477-0.558-0.904-0.723
	c-0.23-0.088-0.553,0.268-1.084,0.183c-0.416-0.066-1.252-0.33-2.168-0.543c-1.043-0.242-1.949-0.932-2.707-1.085
	c-0.41-0.083-0.855,0.217-1.264,0.182c-1.359-0.112-2.578-1.385-3.977-0.902c-1.232-1.057-3.463-1.11-4.695-2.168
	c-1.135,0.494-1.283-0.653-2.709-0.361c-3.143-2.335-8.203-2.754-11.561-4.876c-3.254-1.062-6.151-1.411-8.667-3.251
	c-4.348-0.885-8.11-2.549-12.283-4.335c-0.422,0-0.844,0-1.264,0c-2.217-0.894-5.631-2.358-8.129-3.252
	c-2.46-0.879-4.732-1.396-7.404-2.349c-0.406-0.146-0.906-0.719-1.447-0.902c-0.473-0.161-1.043,0.031-1.443-0.181
	c-0.583-0.307-1.205-1.195-1.987-1.806c-2.656-2.074-5.009-3.742-7.765-6.503c-2.192-2.189-5.304-4.559-5.419-7.946
	c-0.048-1.325,0.758-3.314,0.902-5.419c0.112-1.65-0.161-3.526,0-5.056c0.066-0.648,0.367-1.32,0.36-1.989
	c-0.009-1.01-0.518-2.012-0.543-2.889c-0.013-0.523,0.339-1.022,0.363-1.626c0.024-0.703-0.484-1.494-0.363-1.987
	c0.221-0.896,2.021-1.992,3.252-2.889c1.57-1.144,2.299-1.771,4.336-2.53c0.67-0.249,1.345-0.907,1.985-1.084
	c2.36-0.645,4.501-0.496,6.685-0.542c0.678,0.137,0.395-0.689,0.902-0.722c4.691-0.068,8.463-1.922,12.101-3.611
	c3.352-1.558,5.688-3.776,9.031-5.058c2.466-0.947,5.334-2.227,8.849-1.626c1.764,0.302,2.648,1.73,4.878,1.265
	c2.397,2.058,6.82,2.092,9.392,3.975c0.553,0.13,0.533-0.313,1.084-0.181c0.738,1.327,2.436,1.082,4.154,1.625
	c2.902,0.913,6.385,2.957,10.838,3.249c0.885,0.698,2.17,1.099,3.611,0.904c3.4,1.896,7.801,2.794,11.381,4.515
	c2.477,2.752,4.072,7.471,4.152,12.101c0.016,0.816,0.5,1.602,0.543,2.351c0.064,1.161-0.424,2.356,0.541,3.248
	c-0.137,6.367,3.432,10.865,5.779,15.897c1.416,3.034,1.838,6.277,3.432,9.392c-0.475,1.503,0.641,2.924,0.904,4.515
	C109.103,66.365,107.794,69.888,106.384,72.221z"/>
</svg>
